<svg width="32" height="32" viewBox="0 0 32 32" fill="none" xmlns="http://www.w3.org/2000/svg">
<rect width="32" height="32" fill="white"/>
<path d="M19.207 9.4375C18.5504 9.44777 17.9082 9.63202 17.3451 9.97166C16.782 10.3113 16.318 10.7943 16 11.3719C15.682 10.7943 15.218 10.3113 14.6549 9.97166C14.0918 9.63202 13.4496 9.44777 12.793 9.4375C11.7463 9.48322 10.7601 9.94352 10.0499 10.7178C9.33977 11.4922 8.96332 12.5176 9.00282 13.57C9.00282 17.5413 15.3912 22.1281 15.663 22.3228L16 22.5625L16.337 22.3228C16.6088 22.1293 22.9972 17.5413 22.9972 13.57C23.0367 12.5176 22.6602 11.4922 21.9501 10.7178C21.2399 9.94352 20.2537 9.48322 19.207 9.4375ZM16 21.1193C14.1032 19.6949 10.169 16.1955 10.169 13.57C10.1292 12.8283 10.3826 12.1009 10.8742 11.5464C11.3657 10.9918 12.0555 10.6552 12.793 10.6098C13.5304 10.6552 14.2202 10.9918 14.7117 11.5464C15.2033 12.1009 15.4568 12.8283 15.4169 13.57H16.5831C16.5432 12.8283 16.7967 12.1009 17.2883 11.5464C17.7798 10.9918 18.4696 10.6552 19.207 10.6098C19.9445 10.6552 20.6343 10.9918 21.1258 11.5464C21.6174 12.1009 21.8708 12.8283 21.831 13.57C21.831 16.1967 17.8968 19.6949 16 21.1193Z" fill="#1D1D1D"/>
</svg>
