<svg width="20" height="20" viewBox="0 0 20 20" fill="none" xmlns="http://www.w3.org/2000/svg">
<g clip-path="url(#clip0_3006_1594)">
<path d="M19.9998 18.8215L14.7815 13.6032C16.137 11.9453 16.8035 9.82989 16.643 7.69445C16.4826 5.55901 15.5075 3.56693 13.9195 2.13025C12.3314 0.693577 10.252 -0.0777715 8.11119 -0.024245C5.97039 0.0292815 3.93207 0.903588 2.41783 2.41783C0.903588 3.93207 0.0292815 5.97039 -0.024245 8.11119C-0.0777715 10.252 0.693577 12.3314 2.13025 13.9195C3.56693 15.5075 5.55901 16.4826 7.69445 16.643C9.82989 16.8035 11.9453 16.137 13.6032 14.7815L18.8215 19.9998L19.9998 18.8215ZM8.33315 14.9998C7.01461 14.9998 5.72568 14.6088 4.62935 13.8763C3.53302 13.1437 2.67854 12.1025 2.17395 10.8844C1.66937 9.6662 1.53735 8.32576 1.79458 7.03255C2.05182 5.73934 2.68676 4.55146 3.61911 3.61911C4.55146 2.68676 5.73934 2.05182 7.03255 1.79458C8.32576 1.53735 9.6662 1.66937 10.8844 2.17395C12.1025 2.67854 13.1437 3.53302 13.8763 4.62935C14.6088 5.72568 14.9998 7.01461 14.9998 8.33315C14.9978 10.1007 14.2948 11.7952 13.045 13.045C11.7952 14.2948 10.1007 14.9978 8.33315 14.9998Z" fill="white"/>
</g>
<defs>
<clipPath id="clip0_3006_1594">
<rect width="20" height="20" fill="white"/>
</clipPath>
</defs>
</svg>
