<svg width="20" height="20" viewBox="0 0 20 20" fill="none" xmlns="http://www.w3.org/2000/svg">
<g clip-path="url(#clip0_3006_1597)">
<path d="M17.5 19.9998H15.8333V15.7973C15.8327 15.144 15.5728 14.5176 15.1109 14.0556C14.6489 13.5937 14.0225 13.3338 13.3692 13.3332H6.63083C5.9775 13.3338 5.35111 13.5937 4.88914 14.0556C4.42716 14.5176 4.16733 15.144 4.16667 15.7973V19.9998H2.5V15.7973C2.50132 14.7022 2.93696 13.6523 3.71135 12.8779C4.48575 12.1035 5.53567 11.6678 6.63083 11.6665H13.3692C14.4643 11.6678 15.5143 12.1035 16.2886 12.8779C17.063 13.6523 17.4987 14.7022 17.5 15.7973V19.9998Z" fill="white"/>
<path d="M10 9.99988C9.0111 9.99988 8.0444 9.70664 7.22215 9.15723C6.39991 8.60782 5.75904 7.82693 5.3806 6.9133C5.00217 5.99967 4.90315 4.99433 5.09608 4.02443C5.289 3.05452 5.76521 2.16361 6.46447 1.46435C7.16373 0.765084 8.05465 0.28888 9.02455 0.0959538C9.99446 -0.0969723 10.9998 0.00204436 11.9134 0.380483C12.827 0.758921 13.6079 1.39978 14.1573 2.22203C14.7068 3.04427 15 4.01097 15 4.99988C14.9987 6.32556 14.4715 7.59656 13.5341 8.53395C12.5967 9.47135 11.3257 9.99856 10 9.99988ZM10 1.66655C9.34073 1.66655 8.69627 1.86204 8.1481 2.22831C7.59994 2.59459 7.1727 3.11518 6.9204 3.72427C6.66811 4.33336 6.6021 5.00358 6.73072 5.65018C6.85934 6.29678 7.1768 6.89073 7.64298 7.3569C8.10915 7.82308 8.7031 8.14055 9.3497 8.26917C9.9963 8.39778 10.6665 8.33177 11.2756 8.07948C11.8847 7.82719 12.4053 7.39994 12.7716 6.85178C13.1378 6.30362 13.3333 5.65915 13.3333 4.99988C13.3333 4.11583 12.9821 3.26798 12.357 2.64286C11.7319 2.01774 10.8841 1.66655 10 1.66655Z" fill="white"/>
</g>
<defs>
<clipPath id="clip0_3006_1597">
<rect width="20" height="20" fill="white"/>
</clipPath>
</defs>
</svg>
